<!-- icon666.com - MILLIONS vector ICONS FREE --><svg xmlns="http://www.w3.org/2000/svg" version="1.1"
  viewBox="0 -274 1090 1090">
  <g id="surface1" transform="scale (-1, 1)" transform-origin="center">
    <path
      d="M 635.523438 1.988281 C 562.546875 5.953125 490.644531 21.480469 422.53125 48 C 358.539062 74.347656 298.925781 110.277344 245.773438 154.578125 L 233.339844 164.964844 L 599.367188 146.707031 Z M 635.523438 1.988281 "
      style="stroke: none; fill-rule: nonzero; fill-opacity: 1; fill: rgb(50, 32, 182);" fill="rgb(0%,0%,0%)"></path>
    <path
      d="M 0 424.914062 L 40.304688 424.914062 C 40.527344 423.410156 40.898438 421.976562 41.171875 420.492188 C 41.496094 418.542969 41.808594 416.792969 42.222656 414.953125 C 42.757812 412.488281 43.421875 410.074219 44.164062 407.644531 C 44.628906 405.929688 45.082031 404.199219 45.628906 402.523438 C 46.453125 400 47.398438 397.542969 48.351562 395.089844 C 48.957031 393.578125 49.476562 392.054688 50.109375 390.574219 C 50.722656 389.097656 51.542969 387.523438 52.28125 385.980469 L 0 385.980469 Z M 0 424.914062 "
      style="stroke: none; fill-rule: nonzero; fill-opacity: 1; fill: rgb(50, 32, 182);" fill="rgb(0%,0%,0%)"></path>
    <path
      d="M 272.5 444.375 C 272.5 498.117188 228.925781 541.691406 175.183594 541.691406 C 121.429688 541.691406 77.855469 498.117188 77.855469 444.375 C 77.855469 390.621094 121.429688 347.046875 175.183594 347.046875 C 228.925781 347.046875 272.5 390.621094 272.5 444.375 Z M 272.5 444.375 "
      style="stroke: none; fill-rule: nonzero; fill-opacity: 1; fill: rgb(50, 32, 182);" fill="rgb(0%,0%,0%)"></path>
    <path
      d="M 931.964844 21.121094 L 772.222656 4.265625 C 744.8125 1.402344 717.253906 -0.0273438 689.699219 0 C 685.167969 0 680.628906 0.21875 676.074219 0.296875 L 639.984375 144.625 L 864.546875 133.40625 Z M 931.964844 21.121094 "
      style="stroke: none; fill-rule: nonzero; fill-opacity: 1; fill: rgb(50, 32, 182);" fill="rgb(0%,0%,0%)"></path>
    <path
      d="M 993.253906 293.371094 L 973.792969 215.515625 C 972.347656 209.699219 973.664062 203.539062 977.351562 198.816406 C 981.023438 194.101562 986.683594 191.335938 992.683594 191.335938 L 1084.535156 191.335938 L 1016.410156 106.179688 C 1011.65625 100.25 1010.792969 92.109375 1014.1875 85.308594 L 1040.554688 32.566406 L 974.65625 25.617188 L 892.570312 162.4375 C 889.234375 168.003906 883.347656 171.539062 876.855469 171.875 L 630.121094 184.175781 L 589.398438 347.046875 L 720.183594 347.046875 L 720.183594 385.980469 L 579.667969 385.980469 L 569.925781 424.914062 L 779.949219 424.914062 C 780.164062 423.410156 780.542969 421.976562 780.816406 420.492188 C 781.140625 418.542969 781.453125 416.792969 781.867188 414.953125 C 782.402344 412.488281 783.066406 410.074219 783.808594 407.644531 C 784.273438 405.929688 784.722656 404.199219 785.273438 402.523438 C 786.085938 400 787.039062 397.542969 787.992188 395.089844 C 788.601562 393.578125 789.121094 392.054688 789.753906 390.574219 C 790.957031 387.789062 792.3125 385.09375 793.632812 382.398438 C 794.1875 381.324219 794.652344 380.222656 795.226562 379.167969 C 797.242188 375.492188 799.414062 371.921875 801.753906 368.445312 C 802.277344 367.660156 802.890625 366.960938 803.40625 366.183594 C 805.355469 363.519531 807.304688 360.886719 809.246094 358.398438 C 810.199219 357.230469 811.183594 356.140625 812.226562 354.992188 C 813.996094 353.050781 815.753906 350.964844 817.617188 349.152344 C 818.796875 347.949219 820.046875 346.816406 821.296875 345.675781 C 823.113281 343.957031 824.917969 342.246094 826.820312 340.625 C 828.167969 339.480469 829.574219 338.414062 830.96875 337.316406 C 832.914062 335.820312 834.867188 334.359375 836.808594 332.953125 C 838.285156 331.929688 839.78125 331.011719 841.335938 329.96875 C 843.277344 328.660156 845.394531 327.390625 847.492188 326.210938 C 849.070312 325.289062 850.664062 324.429688 852.289062 323.585938 C 854.445312 322.460938 856.617188 321.417969 858.84375 320.425781 C 860.496094 319.664062 862.148438 318.929688 863.816406 318.246094 C 866.121094 317.3125 868.476562 316.492188 870.839844 315.679688 C 872.523438 315.089844 874.199219 314.496094 875.929688 313.980469 C 878.417969 313.25 880.949219 312.636719 883.488281 312.035156 C 885.160156 311.652344 886.796875 311.199219 888.484375 310.867188 C 891.328125 310.300781 894.222656 309.910156 897.140625 309.535156 C 898.585938 309.347656 900.007812 309.074219 901.46875 308.945312 C 905.847656 308.515625 910.304688 308.257812 914.800781 308.257812 C 921.523438 308.304688 928.238281 308.855469 934.863281 309.910156 C 936.195312 310.109375 937.535156 310.28125 938.769531 310.515625 C 945 311.617188 951.132812 313.160156 957.152344 315.113281 C 958.238281 315.484375 959.304688 315.921875 960.382812 316.316406 C 965.871094 318.253906 971.207031 320.554688 976.386719 323.183594 C 977.128906 323.558594 977.90625 323.867188 978.617188 324.261719 C 984.066406 327.210938 989.3125 330.519531 994.3125 334.160156 C 995.449219 334.984375 996.558594 335.820312 997.671875 336.671875 C 1002.570312 340.421875 1007.207031 344.472656 1011.5625 348.839844 C 1012.121094 349.394531 1012.609375 350.007812 1013.128906 350.574219 C 1017.078125 354.699219 1020.746094 359.070312 1024.132812 363.671875 C 1024.847656 364.660156 1025.628906 365.625 1026.332031 366.617188 C 1029.828125 371.628906 1032.992188 376.890625 1035.789062 382.324219 C 1036.414062 383.53125 1036.964844 384.753906 1037.550781 385.964844 C 1040.253906 391.523438 1042.566406 397.261719 1044.492188 403.144531 C 1044.492188 403.347656 1044.664062 403.535156 1044.722656 403.734375 L 1090 358.457031 L 1090 308.125 L 1012.144531 308.125 C 1003.207031 308.125 995.425781 302.042969 993.253906 293.371094 Z M 856.433594 249.730469 L 739.644531 249.730469 L 739.644531 210.796875 L 856.433594 210.796875 Z M 856.433594 249.730469 "
      style="stroke: none; fill-rule: nonzero; fill-opacity: 1; fill: rgb(50, 32, 182);" fill="rgb(0%,0%,0%)"></path>
    <path
      d="M 1017.609375 230.269531 L 1027.339844 269.191406 L 1090 269.191406 L 1090 230.269531 Z M 1017.609375 230.269531 "
      style="stroke: none; fill-rule: nonzero; fill-opacity: 1; fill: rgb(50, 32, 182);" fill="rgb(0%,0%,0%)"></path>
    <path
      d="M 1012.144531 444.375 C 1012.144531 498.117188 968.570312 541.691406 914.816406 541.691406 C 861.074219 541.691406 817.5 498.117188 817.5 444.375 C 817.5 390.621094 861.074219 347.046875 914.816406 347.046875 C 968.570312 347.046875 1012.144531 390.621094 1012.144531 444.375 Z M 1012.144531 444.375 "
      style="stroke: none; fill-rule: nonzero; fill-opacity: 1; fill: rgb(50, 32, 182);" fill="rgb(0%,0%,0%)"></path>
    <path
      d="M 549.265625 347.046875 L 589.476562 186.171875 L 169.351562 207.121094 L 49.679688 253.628906 C 18.964844 270.835938 -0.0351562 303.316406 0 338.53125 L 0 347.046875 L 80.019531 347.046875 C 80.550781 346.523438 81.128906 346.03125 81.691406 345.53125 C 83.507812 343.816406 85.308594 342.109375 87.214844 340.5 C 88.5625 339.34375 89.96875 338.269531 91.359375 337.191406 C 93.316406 335.683594 95.257812 334.222656 97.210938 332.828125 C 98.683594 331.792969 100.183594 330.875 101.722656 329.820312 C 103.667969 328.523438 105.789062 327.25 107.890625 326.070312 C 109.46875 325.15625 111.0625 324.300781 112.679688 323.441406 C 114.835938 322.335938 117.019531 321.28125 119.242188 320.285156 C 120.894531 319.527344 122.550781 318.789062 124.222656 318.109375 C 126.519531 317.171875 128.875 316.355469 131.226562 315.53125 C 132.925781 314.960938 134.601562 314.351562 136.324219 313.84375 C 138.820312 313.101562 141.351562 312.507812 143.886719 311.898438 C 145.554688 311.507812 147.195312 311.0625 148.878906 310.730469 C 151.71875 310.167969 154.625 309.777344 157.546875 309.40625 C 158.984375 309.222656 160.410156 308.945312 161.867188 308.808594 C 166.242188 308.378906 170.703125 308.125 175.199219 308.125 C 179.695312 308.125 184.152344 308.378906 188.53125 308.808594 C 189.992188 308.945312 191.414062 309.222656 192.859375 309.40625 C 195.777344 309.777344 198.695312 310.167969 201.515625 310.730469 C 203.203125 311.0625 204.839844 311.507812 206.511719 311.898438 C 209.050781 312.507812 211.582031 313.101562 214.070312 313.84375 C 215.800781 314.351562 217.476562 314.960938 219.167969 315.53125 C 221.523438 316.355469 223.878906 317.171875 226.183594 318.109375 C 227.851562 318.789062 229.503906 319.527344 231.160156 320.285156 C 233.382812 321.28125 235.554688 322.238281 237.710938 323.441406 C 239.335938 324.300781 240.929688 325.15625 242.507812 326.070312 C 244.605469 327.25 246.652344 328.523438 248.675781 329.820312 C 250.21875 330.800781 251.714844 331.769531 253.191406 332.828125 C 255.132812 334.222656 257.089844 335.683594 259.03125 337.191406 C 260.4375 338.269531 261.84375 339.34375 263.179688 340.5 C 265.125 342.109375 266.894531 343.816406 268.703125 345.53125 C 269.953125 346.675781 271.203125 347.808594 272.382812 349.023438 C 274.335938 350.964844 276.003906 352.902344 277.773438 354.855469 C 278.765625 356.007812 279.722656 357.09375 280.753906 358.265625 C 282.8125 360.792969 284.652344 363.421875 286.59375 366.054688 C 287.121094 366.828125 287.726562 367.527344 288.246094 368.304688 C 290.585938 371.769531 292.757812 375.34375 294.773438 379.03125 C 295.347656 380.082031 295.828125 381.1875 296.367188 382.261719 C 297.746094 384.945312 299.109375 387.652344 300.246094 390.4375 C 300.882812 391.917969 301.398438 393.433594 302.007812 394.949219 C 302.960938 397.40625 303.960938 399.855469 304.726562 402.386719 C 305.277344 404.066406 305.726562 405.792969 306.191406 407.5 C 306.875 409.941406 307.539062 412.355469 308.148438 414.824219 C 308.546875 416.660156 308.867188 418.480469 309.183594 420.355469 C 309.457031 421.828125 309.835938 423.273438 310.050781 424.777344 L 529.804688 424.777344 L 539.535156 385.851562 L 330.894531 385.851562 L 330.894531 347.046875 Z M 428.210938 210.796875 L 525.539062 210.796875 L 525.539062 249.730469 L 428.210938 249.730469 Z M 428.210938 210.796875 "
      style="stroke: none; fill-rule: nonzero; fill-opacity: 1; fill: rgb(50, 32, 182);" fill="rgb(0%,0%,0%)"></path>
  </g>
</svg>
