<!-- icon666.com - MILLIONS vector ICONS FREE --><svg id="Capa_1" enable-background="new 0 0 512.053 512.053" viewBox="0 0 512.053 512.053" xmlns="http://www.w3.org/2000/svg"><g><path d="m48.542 511.866h-30.315c-10.067 0-18.227-8.161-18.227-18.227v-475.225c0-10.066 8.16-18.227 18.227-18.227h30.315c10.066 0 18.227 8.16 18.227 18.227v475.225c0 10.066-8.16 18.227-18.227 18.227z" fill="#d48552"/><g><path d="m284.494 257.682c39.425 7.488 78.219 15.418 115.482 18.355v-110.845c-37.262-2.937-76.057-10.867-115.482-18.354z" fill="#ede6f3"/><path d="m284.494 146.837v-115.018c-38.177-7.249-76.958-14.062-115.482-15.214v114.676c38.539 1.476 77.305 8.306 115.482 15.556z" fill="#fff4f4"/><path d="m512.053 151.286v-96.51c0-9.877-9.635-16.921-19.024-13.856-29.373 9.59-60.603 11.311-93.054 8.998v115.274c39.432 3.107 77.148.621 112.078-13.906z" fill="#ede6f3"/><path d="m169.012 131.281v110.844c38.539 1.477 77.305 8.306 115.482 15.557v-110.845c-38.177-7.25-76.943-14.08-115.482-15.556z" fill="#404754"/><path d="m169.012 131.281v-114.676c-34.478-1.031-68.747 2.469-102.187 14.254v112.824c33.49-10.762 67.747-13.722 102.187-12.402z" fill="#404754"/><path d="m399.975 165.192v-115.274c-37.207-2.651-76.021-10.605-115.482-18.098v115.018c39.425 7.487 78.22 15.417 115.482 18.354z" fill="#1d1a28"/><path d="m169.012 242.125v-110.844c-34.44-1.32-68.697 1.64-102.187 12.402v110.844c33.49-10.762 67.747-13.722 102.187-12.402z" fill="#fff4f4"/><path d="m399.975 165.192v110.845c39.432 3.108 77.147.621 112.078-13.906v-110.845c-34.93 14.527-72.646 17.013-112.078 13.906z" fill="#1d1a28"/><path d="m284.494 257.682v98.08c39.462 7.332 78.273 15.111 115.482 17.634v-97.359c-37.263-2.937-76.058-10.868-115.482-18.355z" fill="#1d1a28"/><path d="m399.975 276.036v97.359c36.106 2.448 70.704-.054 102.911-12.764 5.544-2.188 9.166-7.575 9.166-13.535v-84.966c-34.929 14.528-72.645 17.014-112.077 13.906z" fill="#ede6f3"/><path d="m66.825 254.527v100.85c33.439-11.785 67.709-15.335 102.187-14.4v-98.851c-34.44-1.321-68.697 1.639-102.187 12.401z" fill="#404754"/><path d="m169.012 242.125v98.851c38.523 1.044 77.305 7.692 115.482 14.785v-98.08c-38.177-7.25-76.943-14.079-115.482-15.556z" fill="#fff4f4"/></g></g></svg>
